<svg xmlns="http://www.w3.org/2000/svg" viewBox="0 0 32 32">
  <rect width="32" height="32" rx="6" fill="#FFFFFF"/>
  <g transform="translate(5, 11.147) scale(0.06471)"
     fill="none" stroke="#2563EB" stroke-width="4"
     stroke-linecap="round" stroke-linejoin="round">
    <path d="M 50 90 
             L 50 70 
             C 50 60, 60 55, 80 55 
             L 120 45 
             C 150 20, 200 20, 230 35 
             L 260 55 
             C 280 55, 300 60, 310 70 
             L 310 90" />

    <path d="M 50 90 L 80 90" />
    <path d="M 140 90 L 230 90" />
    <path d="M 290 90 L 310 90" />

    <circle cx="110" cy="90" r="18" />
    <circle cx="260" cy="90" r="18" />

    <path d="M 130 50 
             C 160 30, 200 30, 220 40 
             L 250 55" />
  </g>
</svg>
